<mxfile host="app.diagrams.net" modified="2024-01-05T22:51:12.994Z" agent="Mozilla/5.0 (Windows NT 10.0; Win64; x64) AppleWebKit/537.36 (KHTML, like Gecko) Chrome/120.0.0.0 Safari/537.36" etag="R3SI7lEMO0rsXPX7LVjl" version="22.1.15" type="device">
  <diagram name="Page-1" id="dbS2NZ3jxHbLawOl9OXg">
    <mxGraphModel dx="1434" dy="746" grid="1" gridSize="10" guides="1" tooltips="1" connect="1" arrows="1" fold="1" page="1" pageScale="1" pageWidth="827" pageHeight="1169" math="0" shadow="0">
      <root>
        <mxCell id="0" />
        <mxCell id="1" parent="0" />
        <mxCell id="Dwg5YjpwcM-fOMi0jqAs-1" value="&lt;ul style=&quot;font-size: 25px;&quot;&gt;&lt;li&gt;User can create/update/delete/search a customer&lt;/li&gt;&lt;li&gt;User can create/update/delete/search a product&lt;/li&gt;&lt;li style=&quot;border-color: var(--border-color);&quot;&gt;User can create/delete/search an order&lt;/li&gt;&lt;li&gt;User can add a product to cart(associate a product to a customer)&lt;/li&gt;&lt;li&gt;User can add product(s) to an order&lt;/li&gt;&lt;/ul&gt;" style="text;strokeColor=none;align=left;fillColor=none;html=1;verticalAlign=top;whiteSpace=wrap;rounded=0;" vertex="1" parent="1">
          <mxGeometry x="30" y="120" width="780" height="530" as="geometry" />
        </mxCell>
        <mxCell id="Dwg5YjpwcM-fOMi0jqAs-2" value="&lt;b&gt;&lt;font style=&quot;font-size: 36px;&quot;&gt;REQUIREMENTS&lt;/font&gt;&lt;/b&gt;" style="text;strokeColor=none;align=center;fillColor=none;html=1;verticalAlign=middle;whiteSpace=wrap;rounded=0;" vertex="1" parent="1">
          <mxGeometry x="90" y="70" width="450" height="30" as="geometry" />
        </mxCell>
      </root>
    </mxGraphModel>
  </diagram>
</mxfile>
